<?xml version="1.0" encoding="utf-8"?>
<!-- Generator: Adobe Illustrator 24.0.2, SVG Export Plug-In . SVG Version: 6.00 Build 0)  -->
<svg version="1.1" id="Layer_1" xmlns="http://www.w3.org/2000/svg" xmlns:xlink="http://www.w3.org/1999/xlink" x="0px" y="0px"
	 viewBox="0 0 49.11 58.38" style="enable-background:new 0 0 49.11 58.38;" xml:space="preserve">
<style type="text/css">
	.st0{fill:#00B377;}
</style>
<path class="st0" d="M42.06,26.36c-0.78,5.15-0.21,10.42-0.75,15.6c-0.54,5.18-2.49,10.63-6.88,13.44
	c-3.15,2.02-7.09,2.36-10.83,2.21c-7.29-0.3-15-2.64-19.42-8.44c-4.37-5.74-4.6-13.81-2.39-20.68c2.21-6.87,6.55-12.82,10.81-18.64
	c2.38-3.24,4.92-6.63,8.6-8.25c8.98-3.96,18.99,3.01,25.54,8.61c2.67,2.28,1.88,4.5-0.21,6.79C44.05,19.72,42.62,22.65,42.06,26.36z
	"/>
</svg>
