<?xml version="1.0" encoding="utf-8"?>
<!-- Generator: Adobe Illustrator 24.0.2, SVG Export Plug-In . SVG Version: 6.00 Build 0)  -->
<svg version="1.1" id="Layer_1" xmlns="http://www.w3.org/2000/svg" xmlns:xlink="http://www.w3.org/1999/xlink" x="0px" y="0px"
	 viewBox="0 0 46.11 49.3" style="enable-background:new 0 0 46.11 49.3;" xml:space="preserve">
<style type="text/css">
	.st0{fill:#F1675F;}
</style>
<path class="st0" d="M14.56,1.64c2.79,1.34,5.12,3.72,8.15,4.36c3.65,0.77,7.36-1.2,11.09-1.02c6.24,0.29,10.79,6.69,11.27,12.92
	c0.49,6.23-2.02,12.26-4.48,18.01c-1.28,2.98-2.59,6.02-4.73,8.46c-2.14,2.44-5.29,4.22-8.52,3.9c-3.97-0.39-6.94-3.69-9.49-6.76
	c-3.31-3.98-6.62-7.96-9.93-11.94c-3.17-3.81-6.45-7.85-7.43-12.71C-0.88,10.04,6.56-2.19,14.56,1.64z"/>
</svg>
