<?xml version="1.0" encoding="utf-8"?>
<!-- Generator: Adobe Illustrator 24.0.2, SVG Export Plug-In . SVG Version: 6.00 Build 0)  -->
<svg version="1.1" id="Layer_1" xmlns="http://www.w3.org/2000/svg" xmlns:xlink="http://www.w3.org/1999/xlink" x="0px" y="0px"
	 viewBox="0 0 88.49 33.14" style="enable-background:new 0 0 88.49 33.14;" xml:space="preserve">
<style type="text/css">
	.st0{fill:#00B277;}
</style>
<path class="st0" d="M83.32,17.39c-0.25-0.21-0.6-0.36-0.73-0.63c-1.63-3.28-4.07-5.9-6.79-8.28c-7.75-6.8-16.9-9.13-27-8.36
	c0,0-0.12-0.15-0.12-0.15c-3.91,0.04-7.83,0.01-11.74,0.14c-3.19,0.1-6.36-0.1-9.58,0.73c-7.29,1.89-13.13,5.77-18.1,11.35
	C3.9,18.21,1.35,25.37,0,33.11c16.21,0.01,32.42,0.02,48.63,0.02c13.25,0,26.5,0,39.85,0C88.01,27.4,86.01,22.29,83.32,17.39z"/>
</svg>
