<?xml version="1.0" encoding="utf-8"?>
<!-- Generator: Adobe Illustrator 24.0.2, SVG Export Plug-In . SVG Version: 6.00 Build 0)  -->
<svg version="1.1" id="Layer_1" xmlns="http://www.w3.org/2000/svg" xmlns:xlink="http://www.w3.org/1999/xlink" x="0px" y="0px"
	 viewBox="0 0 81.04 86.63" style="enable-background:new 0 0 81.04 86.63;" xml:space="preserve">
<style type="text/css">
	.st0{fill:#FBC80C;}
</style>
<path class="st0" d="M80.97,68.2c0-5.01,0.01-10.01,0.01-15.02c-0.01-9.39-0.02-18.77-0.03-28.16c0-3.05-0.01-6.11,0-9.16
	c0-0.34,0.07-0.67,0.1-1.01c-0.49-1.87-1.04-3.73-1.06-5.69c0,0,0,0,0,0c0.02-0.14,0.04-0.28,0.06-0.41
	c-1.3-3.02-3.22-5.5-6.18-7.07c-2.56-1.35-5.33-2.06-8.15-1.49c-2.3,0.46-4.53,1.21-6.5,2.81c-2.55,2.06-4.09,4.53-4.85,7.63
	c-0.47,1.94-0.41,3.99-1.26,5.84c-0.04,0.05-0.09,0.1-0.14,0.14c-1.52,3.16-4.28,4.58-7.49,5.39c-3.12,0.78-6.3,0.48-9.46,0.52
	c-2.56,0.03-4.94,0.81-7.05,2.08c-5.28,3.17-7.45,9.32-5.72,15.54c1.5,5.36,6.98,9.36,12.87,9.36c3.17,0,6.33,0,9.5-0.01
	c1.02,0,1.89,0.29,2.34,1.29c0.8,1.75-0.33,3.25-2.46,3.26c-7.29,0.03-14.58,0-21.86,0.06c-6.58,0.05-12.2,2.53-16.48,7.46
	c-6.18,7.11-7.36,15.21-3.93,23.99C3.56,86.39,4,86.63,4.9,86.63c16.03-0.03,32.05-0.02,48.08-0.02c0.34,0,0.68-0.03,1.03-0.05
	c8.98,0,17.96,0.01,26.94,0.01c0-5.72,0-11.44,0.01-17.15c0-0.38,0.06-0.76,0.09-1.13C81.03,68.28,80.97,68.2,80.97,68.2L80.97,68.2
	z"/>
</svg>
