<?xml version="1.0" encoding="utf-8"?>
<!-- Generator: Adobe Illustrator 24.0.2, SVG Export Plug-In . SVG Version: 6.00 Build 0)  -->
<svg version="1.1" id="Layer_1" xmlns="http://www.w3.org/2000/svg" xmlns:xlink="http://www.w3.org/1999/xlink" x="0px" y="0px"
	 viewBox="0 0 68.3 64.62" style="enable-background:new 0 0 68.3 64.62;" xml:space="preserve">
<style type="text/css">
	.st0{fill:#F1675F;}
</style>
<path class="st0" d="M10.3,0.83c4.84-0.75,9.67,1,14.26,2.71c6.97,2.61,13.93,5.21,20.9,7.82c3.27,1.22,6.57,2.46,9.53,4.3
	c6.12,3.8,10.56,10.2,11.98,17.26c1.42,7.06-0.2,14.68-4.37,20.55c-3.42,4.81-8.56,8.45-14.33,9.69
	c-5.77,1.24-12.11-0.04-16.71-3.73c-3.1-2.48-5.31-5.89-7.46-9.23c-5.23-8.12-10.46-16.24-15.69-24.35
	C5.44,21.23-1.71,13.9,1.06,7.87C2.71,4.29,6.42,1.43,10.3,0.83z"/>
</svg>
