<?xml version="1.0" encoding="utf-8"?>
<!-- Generator: Adobe Illustrator 24.0.2, SVG Export Plug-In . SVG Version: 6.00 Build 0)  -->
<svg version="1.1" id="Layer_1" xmlns="http://www.w3.org/2000/svg" xmlns:xlink="http://www.w3.org/1999/xlink" x="0px" y="0px"
	 viewBox="0 0 79.28 93.83" style="enable-background:new 0 0 79.28 93.83;" xml:space="preserve">
<style type="text/css">
	.st0{fill:#00B9ED;}
</style>
<g>
	<path class="st0" d="M59.11,49.53c-9.68-0.08-16.75-7.41-18.75-15.45c-0.96-3.88-0.58-7.81-0.6-11.72
		c-0.01-3.22-0.59-6.28-1.72-9.27C34.39,3.48,23.43-1.69,14.08,2.02C5.86,5.28,1.51,12.43,1.36,21.26
		C1.1,37.09,1.29,52.93,1.27,68.77c0,2,0.15,3.98,0.46,5.96c1.48,9.47,9.64,16.52,19.19,16.57c2.41,0.01,4.82,0.06,7.23,0.09
		c0.09-0.08,0.17-0.16,0.25-0.25c10.33,0.03,20.66,0.13,30.98,0.04c6.11-0.05,10.89-2.79,14.46-7.79c1.23-1.73,2.04-3.65,3.1-5.46
		c0.04-0.25,0.07-0.5,0.11-0.75v0c0.36-1.48,0.71-2.95,1.07-4.43c-0.19-0.48-0.48-0.96,0.15-1.34c-0.16-1.55-0.26-3.11-0.5-4.64
		C76.35,57.8,69.31,49.61,59.11,49.53z"/>
	<path class="st0" d="M78.25,71.42c0,0.02,0,0.03,0,0.05C78.26,71.46,78.26,71.41,78.25,71.42C78.26,71.41,78.26,71.42,78.25,71.42z
		"/>
</g>
</svg>
