<?xml version="1.0" encoding="utf-8"?>
<!-- Generator: Adobe Illustrator 24.0.2, SVG Export Plug-In . SVG Version: 6.00 Build 0)  -->
<svg version="1.1" id="Layer_1" xmlns="http://www.w3.org/2000/svg" xmlns:xlink="http://www.w3.org/1999/xlink" x="0px" y="0px"
	 viewBox="0 0 50.7 125.47" style="enable-background:new 0 0 50.7 125.47;" xml:space="preserve">
<style type="text/css">
	.st0{fill:#00B9ED;}
</style>
<path class="st0" d="M48.24,66.5c-1.03,1.35-1.56,2.99-2.67,4.3c-3.57,4.21-8.17,6-13.6,6.08c-6.79,0.1-12.8,4.41-15.02,10.81
	c-0.64,1.83-0.84,3.73-0.84,5.66c-0.03,10.71-0.07,21.42-0.11,32.12c-5.33,0-10.66,0-16,0C0,84.42,0,43.38,0,2.11
	c2.1,1.05,3.82,2.33,5.38,3.82c0.63,0.93,1.72,1.31,2.48,2.14c5.58,6.08,8.49,13.19,8.56,21.44c0.02,2.7,0.6,5.24,2.04,7.55
	c0.95,1.92,2.36,3.44,4.03,4.75c3.35,2.64,7.25,3.34,11.4,3.62c6.51,0.44,11.18,3.77,13.95,9.7c0.6,2.29,1.28,4.57,1.3,6.97
	c-0.02,0.17-0.05,0.34-0.07,0.51c-0.24,1-0.48,2.01-0.73,3.01c0.04,0.31-0.36,0.58-0.11,0.92L48.24,66.5z"/>
</svg>
