<?xml version="1.0" encoding="utf-8"?>
<!-- Generator: Adobe Illustrator 24.0.2, SVG Export Plug-In . SVG Version: 6.00 Build 0)  -->
<svg version="1.1" id="Layer_1" xmlns="http://www.w3.org/2000/svg" xmlns:xlink="http://www.w3.org/1999/xlink" x="0px" y="0px"
	 viewBox="0 0 84.17 74.64" style="enable-background:new 0 0 84.17 74.64;" xml:space="preserve">
<style type="text/css">
	.st0{fill:#FAC814;}
</style>
<path class="st0" d="M82.54,54.46c-1.1,5.24-5.32,9.9-10.6,10.77c-6.59,1.09-12.96-3.51-19.63-3.17c-5.87,0.3-10.78,4.29-15.66,7.56
	c-4.88,3.27-11.09,6.02-16.47,3.65c-4.89-2.16-7.22-7.84-7.8-13.15c-0.57-5.31,0.13-10.74-0.9-15.98
	c-0.98-4.96-3.45-9.47-5.76-13.97c-2.31-4.5-4.53-9.19-4.92-14.23C0.4,10.9,2.2,5.39,6.45,2.64C10.53,0,16.01,0.45,20.45,2.46
	c4.44,2.01,8.1,5.35,11.83,8.49c9.29,7.81,19.73,16.3,31.77,19.01C74.74,32.36,85.01,42.67,82.54,54.46z"/>
</svg>
