<?xml version="1.0" encoding="utf-8"?>
<!-- Generator: Adobe Illustrator 24.0.2, SVG Export Plug-In . SVG Version: 6.00 Build 0)  -->
<svg version="1.1" id="Layer_1" xmlns="http://www.w3.org/2000/svg" xmlns:xlink="http://www.w3.org/1999/xlink" x="0px" y="0px"
	 viewBox="0 0 100.43 53.11" style="enable-background:new 0 0 100.43 53.11;" xml:space="preserve">
<style type="text/css">
	.st0{fill:#00B377;}
</style>
<path class="st0" d="M1.87,29.18c2.23,8.64,9.93,16.4,18.4,20.06c8.47,3.66,17.48,3.6,25.16,1.31c5.67-1.69,11.05-4.58,17.42-3.81
	c3.89,0.47,7.77,2.28,11.67,3.19c12.23,2.85,23.78-4.6,25.06-16.16c1.28-11.56-7.9-25.55-19.91-30.34
	C67.77-1.34,56.12,2.6,45.93,6.84c-8.96,3.73-19.69,8.77-30.9,5.72c-5.02-1.36-7.33-1.61-10.5,2.31C1.57,18.52,0.51,23.9,1.87,29.18
	z"/>
</svg>
