<?xml version="1.0" encoding="utf-8"?>
<!-- Generator: Adobe Illustrator 24.0.2, SVG Export Plug-In . SVG Version: 6.00 Build 0)  -->
<svg version="1.1" id="Layer_1" xmlns="http://www.w3.org/2000/svg" xmlns:xlink="http://www.w3.org/1999/xlink" x="0px" y="0px"
	 viewBox="0 0 246.64 252.26" style="enable-background:new 0 0 246.64 252.26;" xml:space="preserve">
<style type="text/css">
	.st0{fill:#253E8E;}
	.st1{fill:#FDCA09;}
	.st2{fill:#00B377;}
	.st3{fill:#F1665F;}
	.st4{fill:#00B9ED;}
</style>
<g>
	<g>
		<path class="st0" d="M6.02,163.03c0-4.11,3.32-7.43,7.43-7.43c4.11,0,7.43,3.32,7.43,7.43v0.59c3.42-4.4,7.92-8.41,15.45-8.41
			c6.84,0,12.02,3.03,14.76,8.31c4.59-5.38,10.07-8.31,17.21-8.31c11.05,0,17.7,6.65,17.7,19.26v27.28c0,4.11-3.32,7.43-7.43,7.43
			s-7.43-3.32-7.43-7.43v-22.39c0-7.04-3.13-10.66-8.7-10.66c-5.57,0-8.99,3.62-8.99,10.66v22.39c0,4.11-3.32,7.43-7.43,7.43
			c-4.11,0-7.43-3.32-7.43-7.43v-22.39c0-7.04-3.13-10.66-8.7-10.66c-5.57,0-8.99,3.62-8.99,10.66v22.39c0,4.11-3.32,7.43-7.43,7.43
			c-4.11,0-7.43-3.32-7.43-7.43V163.03z"/>
		<path class="st0" d="M96.35,182.68v-0.2c0-15.06,12.12-27.28,28.45-27.28c16.23,0,28.25,12.02,28.25,27.08v0.2
			c0,15.06-12.12,27.28-28.45,27.28C108.38,209.76,96.35,197.73,96.35,182.68z M138.39,182.68v-0.2c0-7.72-5.57-14.47-13.78-14.47
			c-8.51,0-13.59,6.55-13.59,14.27v0.2c0,7.72,5.57,14.47,13.78,14.47C133.31,196.95,138.39,190.4,138.39,182.68z"/>
		<path class="st0" d="M184.54,209.66h-0.78c-4.01,0-6.75-2.54-8.41-6.45l-16.03-37.05c-0.39-0.98-0.78-2.25-0.78-3.62
			c0-3.52,3.23-6.94,7.23-6.94s6.16,2.25,7.23,5.28l11.24,30.4l11.44-30.6c0.98-2.54,3.03-5.08,6.94-5.08
			c3.91,0,7.14,3.03,7.14,7.04c0,1.27-0.49,2.83-0.78,3.52l-16.03,37.05C191.28,207.02,188.54,209.66,184.54,209.66z"/>
		<path class="st0" d="M219.34,143.67c0-4.3,3.62-6.94,8.31-6.94c4.69,0,8.31,2.64,8.31,6.94v0.2c0,4.3-3.62,7.04-8.31,7.04
			c-4.69,0-8.31-2.74-8.31-7.04V143.67z M220.22,163.03c0-4.11,3.32-7.43,7.43-7.43s7.43,3.32,7.43,7.43v38.71
			c0,4.11-3.32,7.43-7.43,7.43s-7.43-3.32-7.43-7.43V163.03z"/>
	</g>
	<g>
		<path class="st0" d="M98.36,242.41v-12.42h-0.24c-1.76,0-3.18-1.42-3.18-3.18c0-1.76,1.42-3.18,3.18-3.18h0.24v-3.28
			c0-2.05,1.66-3.71,3.72-3.71s3.72,1.66,3.72,3.71v3.28h3.28c1.76,0,3.18,1.42,3.18,3.18c0,1.76-1.42,3.18-3.18,3.18h-3.28v11.2
			c0,1.71,0.73,2.54,2.4,2.54c0.24,0,0.73-0.05,0.88-0.05c1.66,0,3.08,1.37,3.08,3.08c0,1.32-0.88,2.4-1.91,2.79
			c-1.37,0.54-2.64,0.73-4.25,0.73C101.44,250.28,98.36,248.47,98.36,242.41z"/>
		<path class="st0" d="M117.43,227.06c0-2.05,1.66-3.72,3.72-3.72s3.72,1.66,3.72,3.72v1.17c1.08-2.54,2.84-4.89,5.04-4.89
			c2.3,0,3.62,1.52,3.62,3.62c0,1.96-1.27,3.13-2.79,3.47c-3.76,0.88-5.87,3.76-5.87,9.04v6.94c0,2.05-1.66,3.71-3.72,3.71
			s-3.72-1.66-3.72-3.71V227.06z"/>
		<path class="st0" d="M135.85,236.88v-0.1c0-7.53,6.06-13.64,14.23-13.64c8.12,0,14.13,6.01,14.13,13.54v0.1
			c0,7.53-6.06,13.64-14.23,13.64C141.87,250.43,135.85,244.41,135.85,236.88z M156.88,236.88v-0.1c0-3.86-2.79-7.24-6.89-7.24
			c-4.25,0-6.8,3.28-6.8,7.14v0.1c0,3.86,2.79,7.24,6.89,7.24C154.33,244.02,156.88,240.75,156.88,236.88z"/>
		<path class="st0" d="M169.58,227.06c0-2.05,1.66-3.72,3.72-3.72s3.72,1.66,3.72,3.72v0.29c1.71-2.2,3.91-4.2,7.68-4.2
			c5.62,0,8.9,3.72,8.9,9.73v13.54c0,2.05-1.66,3.71-3.72,3.71c-2.05,0-3.72-1.66-3.72-3.71v-11.2c0-3.52-1.66-5.33-4.5-5.33
			c-2.84,0-4.64,1.81-4.64,5.33v11.2c0,2.05-1.66,3.71-3.72,3.71s-3.72-1.66-3.72-3.71V227.06z"/>
		<path class="st0" d="M199.94,217.38c0-2.15,1.81-3.47,4.16-3.47s4.16,1.32,4.16,3.47v0.1c0,2.15-1.81,3.52-4.16,3.52
			s-4.16-1.37-4.16-3.52V217.38z M200.38,227.06c0-2.05,1.66-3.72,3.72-3.72s3.72,1.66,3.72,3.72v19.36c0,2.05-1.66,3.71-3.72,3.71
			s-3.72-1.66-3.72-3.71V227.06z"/>
		<path class="st0" d="M213.23,242.31v-0.1c0-5.72,4.35-8.36,10.56-8.36c2.64,0,4.55,0.44,6.4,1.08v-0.44
			c0-3.08-1.91-4.79-5.62-4.79c-2.05,0-3.72,0.29-5.13,0.73c-0.44,0.15-0.73,0.2-1.08,0.2c-1.71,0-3.08-1.32-3.08-3.03
			c0-1.32,0.83-2.45,2-2.88c2.35-0.88,4.89-1.37,8.36-1.37c4.06,0,6.99,1.08,8.85,2.93c1.96,1.96,2.84,4.84,2.84,8.36v11.93
			c0,2-1.61,3.57-3.62,3.57c-2.15,0-3.57-1.52-3.57-3.08V247c-1.81,2-4.3,3.33-7.92,3.33C217.29,250.33,213.23,247.49,213.23,242.31
			z M230.3,240.6v-1.32c-1.27-0.59-2.93-0.98-4.74-0.98c-3.18,0-5.13,1.27-5.13,3.62v0.1c0,2,1.66,3.18,4.06,3.18
			C227.95,245.19,230.3,243.29,230.3,240.6z"/>
	</g>
	<g>
		<path class="st0" d="M157.3,102.38c-32.14,33.73-43.19,33.73-75.53,0.08c-2.81,3.4-5.57,6.76-8.35,10.09
			c-13.57,16.22-37.75,19.16-54.89,6.68C1.87,107.11-3.45,82.76,8.73,65.78c13.12-18.29,27.39-35.9,42.51-52.59
			c14.46-15.96,37.93-14.48,53,1.88c5.13,5.57,9.73,11.63,15.28,18.32c4.71-5.66,8.98-10.98,13.46-16.11
			c17.94-20.57,42.28-20.32,59.53,0.68c11.5,14,22.9,28.07,34.15,42.26c15.13,19.1,13.17,43.09-4.51,57.75
			c-17.21,14.26-42.09,11.28-57.61-6.94C162.28,108.41,160.08,105.72,157.3,102.38z M200.24,49.32
			c-7.14-8.76-13.21-16.87-19.99-24.35c-10.94-12.08-24.35-12.18-35.38-0.07c-7.91,8.69-14.68,18.4-22.48,27.2
			c-10.79,12.18-18.3,27.58-34.62,34.86c4.98,6.13,9.48,11.87,14.2,17.42c10.5,12.37,25.55,12.15,35.82-0.5
			c9.02-11.11,18.23-22.09,26.84-33.51C173.39,58.76,183.68,50.07,200.24,49.32z M73.23,91.04c-2.51-3.18-4.69-5.92-6.85-8.67
			c-9.91-12.64-9.92-23.69,0.03-36.09c3.38-4.21,6.89-8.33,10.29-12.53c3.86-4.77,8.56-9.95,2.23-15.62
			c-5.74-5.15-11.65-1.98-15.92,2.64C47.49,37.59,33,55.35,19.77,74c-7.53,10.62-4.11,25.42,5.9,33.36
			c10.71,8.5,25.08,8.16,34.65-1.3C65.04,101.4,69.02,95.99,73.23,91.04z M166.15,90.73c4.85,6.46,8.95,12.94,15.08,17.57
			c11.33,8.54,27.59,6.06,36.44-5.28c8.07-10.34,6.88-26.89-2.48-34.37c-11.11-8.88-24.87-6.99-35.18,5.02
			C175.29,79.16,170.86,84.9,166.15,90.73z M96.85,27.53c-5.27,11.64-13.7,19.48-20.57,28.48c-3.7,4.85-6.16,10.35-0.94,15.26
			c5.8,5.45,11.57,1.95,15.72-2.64c6.91-7.64,13.06-15.96,19.57-24.05C105.9,38.73,101.74,33.58,96.85,27.53z"/>
		<path class="st1" d="M200.24,49.32c-16.56,0.75-26.85,9.44-35.61,21.06c-8.61,11.42-17.82,22.4-26.84,33.51
			c-10.27,12.65-25.32,12.87-35.82,0.5c-4.71-5.55-9.21-11.29-14.2-17.42c16.32-7.28,23.83-22.69,34.62-34.86
			c7.8-8.8,14.57-18.51,22.48-27.2c11.03-12.11,24.44-12.01,35.38,0.07C187.03,32.45,193.1,40.56,200.24,49.32z"/>
		<path class="st2" d="M73.23,91.04c-4.22,4.95-8.2,10.36-12.92,15.02c-9.58,9.46-23.95,9.8-34.65,1.3
			c-10-7.94-13.43-22.74-5.9-33.36C33,55.35,47.49,37.59,63.02,20.76c4.27-4.62,10.18-7.79,15.92-2.64
			c6.32,5.67,1.62,10.85-2.23,15.62c-3.4,4.2-6.91,8.31-10.29,12.53c-9.95,12.4-9.94,23.45-0.03,36.09
			C68.55,85.12,70.72,87.86,73.23,91.04z"/>
		<path class="st3" d="M166.15,90.73c4.72-5.83,9.14-11.57,13.86-17.06c10.32-12.01,24.08-13.91,35.18-5.02
			c9.36,7.48,10.55,24.03,2.48,34.37c-8.85,11.34-25.11,13.82-36.44,5.28C175.1,103.67,171,97.19,166.15,90.73z"/>
		<path class="st4" d="M96.85,27.53c4.89,6.05,9.05,11.2,13.79,17.06C104.13,52.68,97.98,61,91.07,68.64
			c-4.15,4.58-9.93,8.08-15.72,2.64c-5.22-4.91-2.77-10.41,0.94-15.26C83.15,47.01,91.58,39.18,96.85,27.53z"/>
	</g>
</g>
</svg>
